<svg xmlns="http://www.w3.org/2000/svg" version="1.1" xmlns:xlink="http://www.w3.org/1999/xlink" x="0" y="0" viewBox="0 0 466.205 466.205" style="enable-background:new 0 0 512 512" xml:space="preserve" class=""><g><path d="m416.193 170.894-.158-.158-162.986-163.2a25.37 25.37 0 0 0-4.267-3.413l-4.693-2.56-3.2-1.067h-2.347a30.095 30.095 0 0 0-10.88 0h-4.693l-3.627 1.92a25.827 25.827 0 0 0-5.547 4.053L50.169 170.736c-10.957 10.87-11.028 28.565-.158 39.522l.158.158c11.045 10.538 28.421 10.538 39.467 0l97.493-97.28c4.206-4.124 10.96-4.058 15.084.149a10.662 10.662 0 0 1 3.049 7.318v317.653c-.001 15.435 12.51 27.948 27.945 27.949 15.435.001 27.947-12.51 27.949-27.945V120.603c.083-5.89 4.925-10.599 10.815-10.516 2.74.039 5.361 1.13 7.318 3.049l97.067 97.28c11.073 10.674 28.607 10.674 39.68 0 10.957-10.87 11.028-28.565.157-39.522z"></path></g></svg>